HIERARCHY
ROOT Hip
{
	OFFSET	0.0000	0.0000	0.0000
	CHANNELS 6 Xposition Yposition Zposition Xrotation Yrotation Zrotation
	JOINT LowerSpine
	{
		OFFSET	0.0000	8.3453	-5.1292
		CHANNELS 3 Xrotation Yrotation Zrotation
		JOINT MiddleSpine
		{
			OFFSET	10.8569	0.0000	0.0000
			CHANNELS 3 Xrotation Yrotation Zrotation
			JOINT Chest
			{
				OFFSET	15.2984	0.0000	0.0000
				CHANNELS 3 Xrotation Yrotation Zrotation
				JOINT Neck
				{
					OFFSET	25.6618	-0.5986	0.0000
					CHANNELS 3 Xrotation Yrotation Zrotation
					JOINT Head
					{
						OFFSET	8.8829	0.0000	0.0000
						CHANNELS 3 Xrotation Yrotation Zrotation
						End Site
						{
							OFFSET	19.7399	0.0000	0.0000
						}
					}
				}
				JOINT RClavicle
				{
					OFFSET	23.6878	0.0000	3.1584
					CHANNELS 3 Xrotation Yrotation Zrotation
					JOINT RShoulder
					{
						OFFSET	-15.5945	-3.9480	0.9870
						CHANNELS 3 Xrotation Yrotation Zrotation
						JOINT RForearm
						{
							OFFSET	-31.3370	0.0000	0.1974
							CHANNELS 3 Xrotation Yrotation Zrotation
							JOINT RHand
							{
								OFFSET	-26.4021	0.0000	0.0000
								CHANNELS 3 Xrotation Yrotation Zrotation
								End Site
								{
									OFFSET	-15.7919	-0.9870	0.0000
								}
							}
						}
					}
				}
				JOINT LClavicle
				{
					OFFSET	23.6878	0.0000	-3.1584
					CHANNELS 3 Xrotation Yrotation Zrotation
					JOINT LShoulder
					{
						OFFSET	-15.5945	-3.9480	-0.9870
						CHANNELS 3 Xrotation Yrotation Zrotation
						JOINT LForearm
						{
							OFFSET	-31.3370	0.0000	-0.1974
							CHANNELS 3 Xrotation Yrotation Zrotation
							JOINT LHand
							{
								OFFSET	-26.4021	0.0000	0.0000
								CHANNELS 3 Xrotation Yrotation Zrotation
								End Site
								{
									OFFSET	-15.7919	-0.9870	0.0000
								}
							}
						}
					}
				}
			}
		}
	}
	JOINT RThigh
	{
		OFFSET	-8.8829	0.4481	0.0000
		CHANNELS 3 Xrotation Yrotation Zrotation
		JOINT RShin
		{
			OFFSET	43.1316	0.0000	-0.4935
			CHANNELS 3 Xrotation Yrotation Zrotation
			JOINT RFoot
			{
				OFFSET	0.0000	-44.7256	-0.4047
				CHANNELS 3 Xrotation Yrotation Zrotation
				JOINT RToe
				{
					OFFSET	0.0000	-3.9332	12.1953
					CHANNELS 3 Xrotation Yrotation Zrotation
					End Site
					{
						OFFSET	6.7725	0.0000	0.0000
					}
				}
			}
		}
	}
	JOINT LThigh
	{
		OFFSET	8.8829	0.4481	0.0000
		CHANNELS 3 Xrotation Yrotation Zrotation
		JOINT LShin
		{
			OFFSET	43.1316	0.0000	0.4935
			CHANNELS 3 Xrotation Yrotation Zrotation
			JOINT LFoot
			{
				OFFSET	0.0000	-44.7256	0.4047
				CHANNELS 3 Xrotation Yrotation Zrotation
				JOINT LToe
				{
					OFFSET	0.0000	-3.9332	-12.1953
					CHANNELS 3 Xrotation Yrotation Zrotation
					End Site
					{
						OFFSET	6.7725	0.0000	0.0000
					}
				}
			}
		}
	}
}
MOTION
Frames:	11
Frame Time: 0.0169491000
	-12.1118	90.6887	-22.2510	1.579980	9.059459	-19.582160	-89.999990	-90.000000	0.000000	2.888603	-0.429649	-1.109013	9.594738	-1.644834	-3.603556	0.000000	0.000000	0.000000	0.000000	0.000000	0.000000	90.021140	-0.673892	-80.934880	135.056100	77.798400	-82.245670	11.000690	62.255160	-12.674120	0.000000	0.000000	0.000000	-90.000200	0.411375	-84.472540	-8.784705	-28.518920	48.160500	-2.647619	-26.257740	-6.539791	0.000000	0.000000	0.000000	-72.936390	68.814610	-19.246270	89.971850	3.143412	89.997540	0.588761	2.255227	0.728818	178.433300	90.000000	0.000000	-99.195250	54.871280	-12.066550	-89.745510	-26.930770	90.032890	3.969770	-0.929032	0.385578	183.008200	-90.000000	0.000000
	-11.8848	90.7665	-22.1679	1.068782	8.578872	-19.311600	-89.999990	-90.000000	0.000000	2.799323	-0.425528	-1.151730	9.295792	-1.632723	-3.749530	0.000000	0.000000	0.000000	0.000000	0.000000	0.000000	90.010490	-0.565173	-82.402220	90.676680	81.326900	-36.188030	17.635270	71.518880	-18.797170	0.000000	0.000000	0.000000	-89.999490	0.396330	-84.674870	-9.806354	-27.256820	49.289420	-2.593072	-25.829450	-6.515841	0.000000	0.000000	0.000000	-72.802670	68.939040	-18.957300	89.971210	3.215786	89.997510	0.768969	1.537685	0.501640	178.421200	90.000000	0.000000	-98.476480	54.898300	-11.540740	-89.751710	-26.349880	90.030710	3.934829	-1.301153	0.538273	183.526800	-90.000000	0.000000
	-11.6318	90.8636	-22.0935	0.435086	8.007507	-18.928670	-89.999990	-90.000000	0.000000	2.674550	-0.383663	-1.190386	8.881583	-1.491031	-3.889925	0.000000	0.000000	0.000000	0.000000	0.000000	0.000000	90.001640	-0.439135	-84.099370	39.268440	77.314380	16.662540	36.128550	80.179860	-36.789090	0.000000	0.000000	0.000000	-89.998550	0.374225	-84.972040	-11.039920	-25.603150	50.446090	-2.615557	-26.006380	-6.525669	0.000000	0.000000	0.000000	-72.409680	69.195270	-18.853450	89.969690	3.385538	89.997410	0.819067	0.941800	0.305046	178.691800	90.000000	0.000000	-97.633020	55.121490	-10.897420	-89.759320	-25.629660	90.028110	3.892643	-1.178424	0.496121	183.788900	-90.000000	0.000000
	-11.3223	90.9802	-22.0109	-0.373487	7.246709	-18.439870	-89.999990	-90.000000	0.000000	2.524788	-0.320340	-1.207395	8.386742	-1.271526	-3.961984	0.000000	0.000000	0.000000	0.000000	0.000000	0.000000	89.996280	-0.302546	-85.935390	20.462150	68.899510	36.030380	99.199450	84.057400	-99.405340	0.000000	0.000000	0.000000	-89.997730	0.352411	-85.265240	-12.389670	-23.699940	51.495930	-2.689737	-26.586290	-6.558532	0.000000	0.000000	0.000000	-71.628930	69.678660	-18.941850	89.968100	3.564256	89.997320	0.898400	0.881811	0.288262	178.817400	90.000000	0.000000	-96.674020	55.569210	-10.108720	-89.766760	-24.918950	90.025670	3.943380	-0.412680	0.188866	183.681300	-90.000000	0.000000
	-10.7653	91.1412	-21.9150	-1.157709	6.550844	-17.769820	-89.999990	-90.000000	0.000000	2.355811	-0.244640	-1.192297	7.829892	-1.003722	-3.928349	0.000000	0.000000	0.000000	0.000000	0.000000	0.000000	89.995320	-0.163433	-87.804040	14.491130	60.393580	41.471210	147.141700	79.210790	-146.931900	0.000000	0.000000	0.000000	-89.997190	0.336144	-85.483860	-13.775310	-21.837800	52.836130	-2.704530	-26.701230	-6.565166	0.000000	0.000000	0.000000	-70.464200	70.527090	-19.489170	89.965640	3.839303	89.997190	1.199629	1.090678	0.361490	178.349600	90.000000	0.000000	-95.605130	56.405240	-9.210259	-89.778060	-23.824670	90.022120	4.106199	0.567400	-0.197967	183.173800	-90.000000	0.000000
	-9.8289	91.3400	-21.8517	-1.732152	6.101738	-16.834990	-89.999990	-90.000000	0.000000	2.167072	-0.156443	-1.142321	7.208722	-0.687877	-3.778989	0.000000	0.000000	0.000000	0.000000	0.000000	0.000000	89.998710	-0.028934	-89.611150	12.214210	53.074170	42.502470	160.769000	72.475000	-160.171800	0.000000	0.000000	0.000000	-89.996940	0.327676	-85.597650	-15.124360	-20.293190	54.615400	-2.634144	-26.152240	-6.533840	0.000000	0.000000	0.000000	-68.863590	71.831010	-20.845950	89.961210	4.334435	89.997010	1.533827	1.289458	0.416819	177.633200	90.000000	0.000000	-94.505130	57.787610	-8.358056	-89.793990	-22.253250	90.017490	4.355945	1.462756	-0.553819	182.362300	-90.000000	0.000000
	-8.6170	91.5358	-21.8439	-2.081611	5.797843	-15.675280	-89.999990	-90.000000	0.000000	1.952477	-0.047113	-1.059842	6.502720	-0.296599	-3.521993	0.000000	0.000000	0.000000	0.000000	0.000000	0.000000	90.005700	0.096561	-91.299380	10.443430	46.272780	42.665970	166.512500	65.839440	-165.548900	0.000000	0.000000	0.000000	-89.996930	0.327269	-85.603080	-16.409030	-19.040990	56.603280	-2.519379	-25.245840	-6.484071	0.000000	0.000000	0.000000	-66.570790	73.526060	-23.170060	89.956500	4.859604	89.996840	1.687743	1.585434	0.497807	177.172400	90.000000	0.000000	-93.538960	59.637280	-7.756878	-89.808480	-20.798120	90.013660	4.634267	2.218020	-0.865217	181.637200	-90.000000	0.000000
	-7.3119	91.7095	-21.8738	-2.254805	5.543854	-14.322740	-89.999990	-90.000000	0.000000	1.703863	0.100281	-0.949347	5.684698	0.224715	-3.172653	0.000000	0.000000	0.000000	0.000000	0.000000	0.000000	90.015370	0.211455	-92.848030	7.765080	38.564300	43.187410	169.580000	59.807160	-168.281800	0.000000	0.000000	0.000000	-89.996950	0.328244	-85.590030	-17.755690	-17.823490	58.716030	-2.362518	-23.984660	-6.418731	0.000000	0.000000	0.000000	-63.235000	75.455220	-26.575430	89.954030	5.135743	89.996770	1.676444	1.871464	0.598939	177.044100	90.000000	0.000000	-92.759510	61.793930	-7.452349	-89.818750	-19.753470	90.011180	4.776557	2.631043	-1.048148	181.365900	-90.000000	0.000000
	-5.9606	91.8623	-21.9093	-2.292778	5.542426	-12.754440	-89.999990	-90.000000	0.000000	1.416968	0.310632	-0.815069	4.740259	0.956784	-2.744565	0.000000	0.000000	0.000000	0.000000	0.000000	0.000000	90.026760	0.315018	-94.247470	3.702291	29.219140	44.061410	171.267900	55.139330	-169.706000	0.000000	0.000000	0.000000	-89.996950	0.327731	-85.596920	-19.163170	-16.580850	60.885130	-2.204122	-22.685420	-6.355985	0.000000	0.000000	0.000000	-58.359930	77.512180	-31.532060	89.952850	5.266223	89.996750	1.485331	1.908402	0.623794	177.096300	90.000000	0.000000	-92.066990	64.201680	-7.279903	-89.829750	-18.619250	90.008720	4.775837	2.333432	-0.954278	181.305300	-90.000000	0.000000
	-4.6040	92.0055	-21.9239	-2.198618	5.985809	-11.032950	-89.999990	-90.000000	0.000000	1.097738	0.612040	-0.659772	3.687957	1.990566	-2.244262	0.000000	0.000000	0.000000	0.000000	0.000000	0.000000	90.038830	0.405451	-95.472930	-0.874042	18.747620	44.263140	172.141900	52.184100	-170.410400	0.000000	0.000000	0.000000	-89.996650	0.317205	-85.738280	-20.532920	-15.365680	62.809450	-2.124182	-22.020080	-6.325583	0.000000	0.000000	0.000000	-50.723110	79.647270	-39.295090	89.951440	5.421872	89.996720	1.141717	2.347327	0.751136	177.167000	90.000000	0.000000	-91.290580	66.988620	-7.231628	-89.845860	-16.937420	90.005520	4.698040	2.627034	-1.035383	180.929200	-90.000000	0.000000
	-3.2178	92.1312	-21.9093	-2.120768	6.530046	-9.034026	-89.999990	-90.000000	0.000000	0.765168	1.023815	-0.485863	2.587619	3.387439	-1.674285	0.000000	0.000000	0.000000	0.000000	0.000000	0.000000	90.050220	0.479773	-96.482840	-4.680884	9.139964	42.876770	172.579500	50.536960	-170.752200	0.000000	0.000000	0.000000	-89.996150	0.296422	-86.017530	-21.836690	-14.205160	64.539610	-2.084657	-21.688760	-6.310870	0.000000	0.000000	0.000000	-37.216950	81.750230	-52.848750	89.949810	5.601584	89.996700	0.460891	2.970980	0.935656	177.535800	90.000000	0.000000	-90.173430	70.271930	-7.413554	-89.866060	-14.791150	90.002170	4.282095	3.841954	-1.428241	180.606000	-90.000000	0.000000
